<svg width="40" height="40" viewBox="0 0 40 40" fill="none" xmlns="http://www.w3.org/2000/svg">
<circle cx="20" cy="20" r="20" fill="url(#paint0_linear_3985_5445)"/>
<path fill-rule="evenodd" clip-rule="evenodd" d="M19.6291 10.1869C19.3288 10.2714 19.1441 10.3775 18.9377 10.5844C18.7069 10.8155 18.5553 11.1144 18.5038 11.4398C18.4518 11.7679 18.4493 19.1914 18.5011 19.5076C18.6266 20.2737 19.2494 20.8155 20.0047 20.8155C20.6941 20.8155 21.2767 20.3735 21.4712 19.7032C21.5179 19.5421 21.5267 18.8679 21.5267 15.4277C21.5267 10.8657 21.5481 11.228 21.2535 10.7977C20.9027 10.2853 20.2078 10.024 19.6291 10.1869ZM14.3215 12.1847C14.0828 12.2634 14.0174 12.3072 13.5968 12.6693C11.7787 14.235 10.6609 16.3135 10.2898 18.8184C10.2223 19.2738 10.2208 20.8225 10.2873 21.2843C10.5422 23.0527 11.1469 24.544 12.1624 25.9079C14.1815 28.6199 17.5193 30.1251 20.8331 29.818C23.036 29.6138 25.0081 28.7467 26.6088 27.2785C28.3065 25.7212 29.3331 23.7765 29.7018 21.4192C29.7977 20.806 29.7978 19.31 29.702 18.7008C29.4179 16.8952 28.7857 15.4088 27.7162 14.0319C27.1061 13.2464 26.1477 12.3576 25.7482 12.2067C25.206 12.0019 24.5918 12.251 24.3313 12.7814C24.242 12.9632 24.224 13.0492 24.2252 13.2893C24.2273 13.7114 24.3378 13.8921 24.8918 14.3795C25.432 14.8548 25.8581 15.3367 26.2275 15.8901C28.2405 18.9059 27.825 22.8999 25.237 25.4105C24.4262 26.197 23.5497 26.7472 22.4899 27.1349C21.1902 27.6103 19.5337 27.6795 18.1252 27.3171C17.2095 27.0815 16.2609 26.6207 15.4782 26.0313C15.0811 25.7322 14.3426 24.9936 14.045 24.5979C13.033 23.2521 12.519 21.7188 12.521 20.0513C12.5224 18.8398 12.7712 17.775 13.3 16.7182C13.7754 15.7679 14.3413 15.0573 15.2724 14.2415C15.6589 13.9029 15.7863 13.6604 15.7842 13.2677C15.7817 12.813 15.5575 12.457 15.1392 12.2434C14.9396 12.1414 14.5397 12.1127 14.3215 12.1847Z" fill="#FCFCFC"/>
<defs>
<linearGradient id="paint0_linear_3985_5445" x1="40" y1="20" x2="-7.84049e-07" y2="20" gradientUnits="userSpaceOnUse">
<stop stop-color="#001C54"/>
<stop offset="1" stop-color="#001C54"/>
</linearGradient>
</defs>
</svg>
