<svg width="12" height="103" viewBox="0 0 12 103" fill="none" xmlns="http://www.w3.org/2000/svg">
<path d="M5.79102 94.1836H6.2627C7.01921 94.1836 7.69824 94.2861 8.2998 94.4912C8.90137 94.6963 9.41406 94.9857 9.83789 95.3594C10.2572 95.7331 10.5785 96.1797 10.8018 96.6992C11.0251 97.2142 11.1367 97.7861 11.1367 98.415C11.1367 99.0394 11.0251 99.6113 10.8018 100.131C10.5785 100.646 10.2572 101.092 9.83789 101.471C9.41406 101.849 8.90137 102.143 8.2998 102.353C7.69824 102.558 7.01921 102.66 6.2627 102.66H5.79102C5.02995 102.66 4.35091 102.558 3.75391 102.353C3.15234 102.147 2.63965 101.858 2.21582 101.484C1.79199 101.106 1.46842 100.66 1.24512 100.145C1.02181 99.625 0.910156 99.0531 0.910156 98.4287C0.910156 97.7998 1.02181 97.2279 1.24512 96.7129C1.46842 96.1934 1.79199 95.7467 2.21582 95.373C2.63965 94.9948 3.15234 94.7031 3.75391 94.498C4.35091 94.2884 5.02995 94.1836 5.79102 94.1836ZM6.2627 96.2549H5.77734C5.2487 96.2549 4.78385 96.3027 4.38281 96.3984C3.98177 96.4941 3.64453 96.6354 3.37109 96.8223C3.09766 97.0091 2.89258 97.237 2.75586 97.5059C2.61458 97.7747 2.54395 98.0824 2.54395 98.4287C2.54395 98.7751 2.61458 99.0827 2.75586 99.3516C2.89258 99.6159 3.09766 99.8415 3.37109 100.028C3.64453 100.211 3.98177 100.35 4.38281 100.445C4.78385 100.541 5.2487 100.589 5.77734 100.589H6.2627C6.78678 100.589 7.25163 100.541 7.65723 100.445C8.05827 100.35 8.39779 100.208 8.67578 100.021C8.94922 99.8346 9.15658 99.6068 9.29785 99.3379C9.43913 99.069 9.50977 98.7614 9.50977 98.415C9.50977 98.0687 9.43913 97.7611 9.29785 97.4922C9.15658 97.2233 8.94922 96.9977 8.67578 96.8154C8.39779 96.6331 8.05827 96.4941 7.65723 96.3984C7.25163 96.3027 6.78678 96.2549 6.2627 96.2549ZM11 90.3213V92.3037H2.94727C2.38672 92.3037 1.91504 92.1943 1.53223 91.9756C1.14486 91.7523 0.85319 91.4401 0.657227 91.0391C0.456706 90.6335 0.356445 90.1527 0.356445 89.5967C0.356445 89.4144 0.370117 89.2389 0.397461 89.0703C0.420247 88.9017 0.44987 88.7376 0.486328 88.5781L1.96973 88.5986C1.94694 88.6852 1.93099 88.7764 1.92188 88.8721C1.91276 88.9678 1.9082 89.0794 1.9082 89.207C1.9082 89.444 1.94922 89.6468 2.03125 89.8154C2.10872 89.9795 2.22493 90.1048 2.37988 90.1914C2.53483 90.278 2.72396 90.3213 2.94727 90.3213H11ZM3.60352 88.8242H4.99805V93.4043H3.60352V88.8242ZM11 85.8916V87.8604H3.26855C2.63965 87.8604 2.10872 87.7327 1.67578 87.4775C1.24284 87.2223 0.914714 86.8532 0.691406 86.3701C0.468099 85.887 0.356445 85.306 0.356445 84.627C0.356445 84.2396 0.395182 83.8636 0.472656 83.499C0.545573 83.1344 0.641276 82.7585 0.759766 82.3711L2.33887 82.6514C2.26139 82.902 2.18848 83.1732 2.12012 83.4648C2.05176 83.752 2.01758 84.0983 2.01758 84.5039C2.01758 84.9596 2.12467 85.306 2.33887 85.543C2.5485 85.7754 2.8584 85.8916 3.26855 85.8916H11ZM3.60352 84.4219H4.99805V88.9678H3.60352V84.4219ZM3.60352 81.4482H11V83.4307H3.60352V81.4482ZM9.59863 76.7588C9.59863 76.5173 9.55306 76.3031 9.46191 76.1162C9.36621 75.9294 9.23405 75.7835 9.06543 75.6787C8.89225 75.5693 8.68945 75.5124 8.45703 75.5078V73.6553C8.97656 73.6598 9.43913 73.7988 9.84473 74.0723C10.2458 74.3457 10.5625 74.7126 10.7949 75.1729C11.0228 75.6331 11.1367 76.1481 11.1367 76.7178C11.1367 77.292 11.041 77.7933 10.8496 78.2217C10.6582 78.6455 10.3939 78.9987 10.0566 79.2812C9.71484 79.5638 9.31836 79.7757 8.86719 79.917C8.41146 80.0583 7.92383 80.1289 7.4043 80.1289H7.20605C6.68197 80.1289 6.19434 80.0583 5.74316 79.917C5.28743 79.7757 4.89095 79.5638 4.55371 79.2812C4.21191 78.9987 3.94531 78.6455 3.75391 78.2217C3.5625 77.7979 3.4668 77.3011 3.4668 76.7314C3.4668 76.1253 3.58301 75.5944 3.81543 75.1387C4.04785 74.6784 4.38053 74.3184 4.81348 74.0586C5.24186 73.7943 5.75 73.6598 6.33789 73.6553V75.5078C6.0918 75.5124 5.86849 75.5648 5.66797 75.665C5.46745 75.7607 5.30794 75.902 5.18945 76.0889C5.06641 76.2712 5.00488 76.4967 5.00488 76.7656C5.00488 77.0527 5.06641 77.2874 5.18945 77.4697C5.30794 77.652 5.47201 77.7933 5.68164 77.8936C5.88672 77.9938 6.12142 78.0645 6.38574 78.1055C6.64551 78.1419 6.91895 78.1602 7.20605 78.1602H7.4043C7.69141 78.1602 7.96712 78.1419 8.23145 78.1055C8.49577 78.069 8.73047 78.0007 8.93555 77.9004C9.14063 77.7956 9.30241 77.652 9.4209 77.4697C9.53939 77.2874 9.59863 77.0505 9.59863 76.7588ZM3.60352 70.4355H11V72.4111H3.60352V70.4355ZM1.67578 72.5342C1.38867 72.5342 1.15169 72.4339 0.964844 72.2334C0.777995 72.0329 0.68457 71.764 0.68457 71.4268C0.68457 71.0941 0.777995 70.8275 0.964844 70.627C1.15169 70.4219 1.38867 70.3193 1.67578 70.3193C1.96289 70.3193 2.19987 70.4219 2.38672 70.627C2.57357 70.8275 2.66699 71.0941 2.66699 71.4268C2.66699 71.764 2.57357 72.0329 2.38672 72.2334C2.19987 72.4339 1.96289 72.5342 1.67578 72.5342ZM9.33203 64.8164H6.03711C5.80013 64.8164 5.59733 64.8551 5.42871 64.9326C5.25553 65.0101 5.12109 65.1309 5.02539 65.2949C4.92969 65.4544 4.88184 65.6618 4.88184 65.917C4.88184 66.1357 4.92057 66.3249 4.99805 66.4844C5.07096 66.6439 5.17806 66.7669 5.31934 66.8535C5.45605 66.9401 5.61784 66.9834 5.80469 66.9834V68.9521C5.49023 68.9521 5.19173 68.8792 4.90918 68.7334C4.62663 68.5876 4.37826 68.3757 4.16406 68.0977C3.94531 67.8197 3.77441 67.4893 3.65137 67.1064C3.52832 66.7191 3.4668 66.2861 3.4668 65.8076C3.4668 65.2334 3.5625 64.723 3.75391 64.2764C3.94531 63.8298 4.23242 63.4788 4.61523 63.2236C4.99805 62.9639 5.47656 62.834 6.05078 62.834H9.21582C9.62142 62.834 9.9541 62.8089 10.2139 62.7588C10.4691 62.7087 10.6924 62.6357 10.8838 62.54H11V64.5293C10.7995 64.625 10.5488 64.6979 10.248 64.748C9.94271 64.7936 9.63737 64.8164 9.33203 64.8164ZM6.49512 64.5566L7.60938 64.543V65.6436C7.60938 65.9033 7.639 66.1289 7.69824 66.3203C7.75749 66.5117 7.8418 66.6689 7.95117 66.792C8.05599 66.915 8.17904 67.0062 8.32031 67.0654C8.46159 67.1201 8.61654 67.1475 8.78516 67.1475C8.95378 67.1475 9.10645 67.1087 9.24316 67.0312C9.37533 66.9538 9.48014 66.8421 9.55762 66.6963C9.63053 66.5505 9.66699 66.3796 9.66699 66.1836C9.66699 65.8874 9.60775 65.6299 9.48926 65.4111C9.37077 65.1924 9.22493 65.0238 9.05176 64.9053C8.87858 64.7822 8.71452 64.7184 8.55957 64.7139L9.39355 64.1943C9.5804 64.2673 9.77409 64.3675 9.97461 64.4951C10.1751 64.6182 10.3643 64.7754 10.542 64.9668C10.7152 65.1582 10.8587 65.3883 10.9727 65.6572C11.082 65.9261 11.1367 66.2451 11.1367 66.6143C11.1367 67.0837 11.0433 67.5098 10.8564 67.8926C10.665 68.2708 10.403 68.5716 10.0703 68.7949C9.73307 69.0137 9.35026 69.123 8.92188 69.123C8.53451 69.123 8.19043 69.0501 7.88965 68.9043C7.58887 68.7585 7.33594 68.5443 7.13086 68.2617C6.92122 67.9746 6.764 67.6169 6.65918 67.1885C6.5498 66.7601 6.49512 66.2633 6.49512 65.6982V64.5566ZM0.5 59.2383H11V61.2139H0.5V59.2383ZM7.45215 50.126V52.6621H5.85254V50.126C5.85254 49.734 5.78874 49.415 5.66113 49.1689C5.52897 48.9229 5.34668 48.7428 5.11426 48.6289C4.88184 48.515 4.61979 48.458 4.32813 48.458C4.0319 48.458 3.75618 48.515 3.50098 48.6289C3.24577 48.7428 3.04069 48.9229 2.88574 49.1689C2.73079 49.415 2.65332 49.734 2.65332 50.126V51.9512H11V54.002H1.04688V50.126C1.04688 49.3467 1.18815 48.679 1.4707 48.123C1.7487 47.5625 2.13379 47.1341 2.62598 46.8379C3.11816 46.5417 3.68099 46.3936 4.31445 46.3936C4.95703 46.3936 5.51302 46.5417 5.98242 46.8379C6.45182 47.1341 6.81413 47.5625 7.06934 48.123C7.32454 48.679 7.45215 49.3467 7.45215 50.126ZM0.5 43.0234H11V44.999H0.5V43.0234ZM9.33203 37.4043H6.03711C5.80013 37.4043 5.59733 37.443 5.42871 37.5205C5.25553 37.598 5.12109 37.7188 5.02539 37.8828C4.92969 38.0423 4.88184 38.2497 4.88184 38.5049C4.88184 38.7236 4.92057 38.9128 4.99805 39.0723C5.07096 39.2318 5.17806 39.3548 5.31934 39.4414C5.45605 39.528 5.61784 39.5713 5.80469 39.5713V41.54C5.49023 41.54 5.19173 41.4671 4.90918 41.3213C4.62663 41.1755 4.37826 40.9635 4.16406 40.6855C3.94531 40.4076 3.77441 40.0771 3.65137 39.6943C3.52832 39.307 3.4668 38.874 3.4668 38.3955C3.4668 37.8213 3.5625 37.3109 3.75391 36.8643C3.94531 36.4176 4.23242 36.0667 4.61523 35.8115C4.99805 35.5518 5.47656 35.4219 6.05078 35.4219H9.21582C9.62142 35.4219 9.9541 35.3968 10.2139 35.3467C10.4691 35.2965 10.6924 35.2236 10.8838 35.1279H11V37.1172C10.7995 37.2129 10.5488 37.2858 10.248 37.3359C9.94271 37.3815 9.63737 37.4043 9.33203 37.4043ZM6.49512 37.1445L7.60938 37.1309V38.2314C7.60938 38.4912 7.639 38.7168 7.69824 38.9082C7.75749 39.0996 7.8418 39.2568 7.95117 39.3799C8.05599 39.5029 8.17904 39.5941 8.32031 39.6533C8.46159 39.708 8.61654 39.7354 8.78516 39.7354C8.95378 39.7354 9.10645 39.6966 9.24316 39.6191C9.37533 39.5417 9.48014 39.43 9.55762 39.2842C9.63053 39.1383 9.66699 38.9674 9.66699 38.7715C9.66699 38.4753 9.60775 38.2178 9.48926 37.999C9.37077 37.7803 9.22493 37.6117 9.05176 37.4932C8.87858 37.3701 8.71452 37.3063 8.55957 37.3018L9.39355 36.7822C9.5804 36.8551 9.77409 36.9554 9.97461 37.083C10.1751 37.2061 10.3643 37.3633 10.542 37.5547C10.7152 37.7461 10.8587 37.9762 10.9727 38.2451C11.082 38.514 11.1367 38.833 11.1367 39.2021C11.1367 39.6715 11.0433 40.0977 10.8564 40.4805C10.665 40.8587 10.403 41.1595 10.0703 41.3828C9.73307 41.6016 9.35026 41.7109 8.92188 41.7109C8.53451 41.7109 8.19043 41.638 7.88965 41.4922C7.58887 41.3464 7.33594 41.1322 7.13086 40.8496C6.92122 40.5625 6.764 40.2048 6.65918 39.7764C6.5498 39.348 6.49512 38.8512 6.49512 38.2861V37.1445ZM3.60352 30.2812H4.99805V34.5879H3.60352V30.2812ZM1.77832 33.5215V31.5527H8.77148C8.98568 31.5527 9.14974 31.5254 9.26367 31.4707C9.3776 31.4115 9.45736 31.3249 9.50293 31.2109C9.54395 31.097 9.56445 30.9535 9.56445 30.7803C9.56445 30.6572 9.5599 30.5479 9.55078 30.4521C9.53711 30.3519 9.52344 30.2676 9.50977 30.1992L10.959 30.1924C11.0137 30.361 11.057 30.5433 11.0889 30.7393C11.1208 30.9352 11.1367 31.1517 11.1367 31.3887C11.1367 31.8216 11.0661 32.1999 10.9248 32.5234C10.779 32.8424 10.5465 33.0885 10.2275 33.2617C9.90853 33.4349 9.48926 33.5215 8.96973 33.5215H1.77832ZM11 26.6514V28.6338H2.94727C2.38672 28.6338 1.91504 28.5244 1.53223 28.3057C1.14486 28.0824 0.85319 27.7702 0.657227 27.3691C0.456706 26.9635 0.356445 26.4827 0.356445 25.9268C0.356445 25.7445 0.370117 25.569 0.397461 25.4004C0.420247 25.2318 0.44987 25.0677 0.486328 24.9082L1.96973 24.9287C1.94694 25.0153 1.93099 25.1064 1.92188 25.2021C1.91276 25.2979 1.9082 25.4095 1.9082 25.5371C1.9082 25.7741 1.94922 25.9769 2.03125 26.1455C2.10872 26.3096 2.22493 26.4349 2.37988 26.5215C2.53483 26.6081 2.72396 26.6514 2.94727 26.6514H11ZM3.60352 25.1748H4.99805V29.7344H3.60352V25.1748ZM7.37695 24.457H7.2334C6.69108 24.457 6.19206 24.3796 5.73633 24.2246C5.27604 24.0697 4.87728 23.8441 4.54004 23.5479C4.2028 23.2516 3.94076 22.887 3.75391 22.4541C3.5625 22.0212 3.4668 21.5244 3.4668 20.9639C3.4668 20.4033 3.5625 19.9043 3.75391 19.4668C3.94076 19.0293 4.2028 18.6624 4.54004 18.3662C4.87728 18.0654 5.27604 17.8376 5.73633 17.6826C6.19206 17.5277 6.69108 17.4502 7.2334 17.4502H7.37695C7.91471 17.4502 8.41374 17.5277 8.87402 17.6826C9.32975 17.8376 9.72852 18.0654 10.0703 18.3662C10.4076 18.6624 10.6696 19.027 10.8564 19.46C11.0433 19.8929 11.1367 20.3896 11.1367 20.9502C11.1367 21.5107 11.0433 22.0098 10.8564 22.4473C10.6696 22.8802 10.4076 23.2471 10.0703 23.5479C9.72852 23.8441 9.32975 24.0697 8.87402 24.2246C8.41374 24.3796 7.91471 24.457 7.37695 24.457ZM7.2334 22.4883H7.37695C7.68685 22.4883 7.97624 22.4609 8.24512 22.4062C8.514 22.3516 8.75098 22.265 8.95605 22.1465C9.15658 22.0234 9.3138 21.8639 9.42773 21.668C9.54167 21.472 9.59863 21.2327 9.59863 20.9502C9.59863 20.6768 9.54167 20.4421 9.42773 20.2461C9.3138 20.0501 9.15658 19.8929 8.95605 19.7744C8.75098 19.6559 8.514 19.5693 8.24512 19.5146C7.97624 19.4554 7.68685 19.4258 7.37695 19.4258H7.2334C6.93262 19.4258 6.65007 19.4554 6.38574 19.5146C6.11686 19.5693 5.87988 19.6582 5.6748 19.7812C5.46517 19.8997 5.30111 20.057 5.18262 20.2529C5.06413 20.4489 5.00488 20.6859 5.00488 20.9639C5.00488 21.2419 5.06413 21.4788 5.18262 21.6748C5.30111 21.8662 5.46517 22.0234 5.6748 22.1465C5.87988 22.265 6.11686 22.3516 6.38574 22.4062C6.65007 22.4609 6.93262 22.4883 7.2334 22.4883ZM5.2168 14.2715H11V16.2402H3.60352V14.3877L5.2168 14.2715ZM3.55566 12.043L5.38086 12.0771C5.36719 12.1729 5.35579 12.2891 5.34668 12.4258C5.33301 12.5579 5.32617 12.6787 5.32617 12.7881C5.32617 13.0661 5.36263 13.3076 5.43555 13.5127C5.50391 13.7132 5.60645 13.8818 5.74316 14.0186C5.87988 14.1507 6.04622 14.251 6.24219 14.3193C6.43815 14.3831 6.66146 14.4196 6.91211 14.4287L6.78906 14.8252C6.31055 14.8252 5.87077 14.7773 5.46973 14.6816C5.06413 14.5859 4.71094 14.4469 4.41016 14.2646C4.10938 14.0778 3.87695 13.8499 3.71289 13.5811C3.54883 13.3122 3.4668 13.0046 3.4668 12.6582C3.4668 12.5488 3.47591 12.4372 3.49414 12.3232C3.50781 12.2093 3.52832 12.1159 3.55566 12.043ZM5.13477 9.14453H11V11.1201H3.60352V9.26758L5.13477 9.14453ZM7.04199 9.41797V9.96484C6.52702 9.96484 6.05306 9.90332 5.62012 9.78027C5.18262 9.65267 4.80436 9.4681 4.48535 9.22656C4.16178 8.98047 3.91113 8.67741 3.7334 8.31738C3.55566 7.95736 3.4668 7.54036 3.4668 7.06641C3.4668 6.73828 3.51693 6.4375 3.61719 6.16406C3.71289 5.89062 3.86556 5.65592 4.0752 5.45996C4.28027 5.25944 4.54915 5.10449 4.88184 4.99512C5.20996 4.88574 5.60417 4.83105 6.06445 4.83105H11V6.7998H6.2832C5.94596 6.7998 5.6862 6.84538 5.50391 6.93652C5.32161 7.02767 5.19401 7.15755 5.12109 7.32617C5.04818 7.49023 5.01172 7.68848 5.01172 7.9209C5.01172 8.17611 5.06413 8.39941 5.16895 8.59082C5.27376 8.77767 5.4196 8.93262 5.60645 9.05566C5.78874 9.17871 6.00293 9.26986 6.24902 9.3291C6.49512 9.38835 6.75944 9.41797 7.04199 9.41797ZM6.81641 5.01562L6.90527 5.71973C6.4222 5.71973 5.97331 5.66048 5.55859 5.54199C5.14388 5.41895 4.7793 5.23893 4.46484 5.00195C4.15039 4.76042 3.90658 4.46191 3.7334 4.10645C3.55566 3.75098 3.4668 3.34082 3.4668 2.87598C3.4668 2.52051 3.51921 2.19694 3.62402 1.90527C3.72428 1.61361 3.88607 1.36523 4.10938 1.16016C4.32813 0.950521 4.61523 0.791016 4.9707 0.681641C5.32617 0.567708 5.76139 0.510742 6.27637 0.510742H11V2.48633H6.27637C5.93457 2.48633 5.6748 2.5319 5.49707 2.62305C5.31478 2.70964 5.18945 2.83724 5.12109 3.00586C5.04818 3.16992 5.01172 3.36589 5.01172 3.59375C5.01172 3.83073 5.05957 4.03809 5.15527 4.21582C5.24642 4.39355 5.37402 4.54167 5.53809 4.66016C5.70215 4.77865 5.89355 4.86751 6.1123 4.92676C6.3265 4.986 6.5612 5.01562 6.81641 5.01562Z" fill="white"/>
</svg>
