<svg width="24" height="24" viewBox="0 0 24 24" fill="none" xmlns="http://www.w3.org/2000/svg">
<g filter="url(#filter0_i_3985_5361)">
<rect width="24" height="24" rx="5" fill="white" fill-opacity="0.65"/>
</g>
<g filter="url(#filter1_d_3985_5361)">
<rect x="3" y="3" width="18" height="18" rx="4" fill="white" fill-opacity="0.65" shape-rendering="crispEdges"/>
</g>
<path fill-rule="evenodd" clip-rule="evenodd" d="M17.0303 14.7803C16.7374 15.0732 16.2626 15.0732 15.9697 14.7803L12 10.8107L8.03033 14.7803C7.73744 15.0732 7.26256 15.0732 6.96967 14.7803C6.67678 14.4874 6.67678 14.0126 6.96967 13.7197L11.4697 9.21967C11.7626 8.92678 12.2374 8.92678 12.5303 9.21967L17.0303 13.7197C17.3232 14.0126 17.3232 14.4874 17.0303 14.7803Z" fill="url(#paint0_linear_3985_5361)"/>
<defs>
<filter id="filter0_i_3985_5361" x="0" y="0" width="24" height="24" filterUnits="userSpaceOnUse" color-interpolation-filters="sRGB">
<feFlood flood-opacity="0" result="BackgroundImageFix"/>
<feBlend mode="normal" in="SourceGraphic" in2="BackgroundImageFix" result="shape"/>
<feColorMatrix in="SourceAlpha" type="matrix" values="0 0 0 0 0 0 0 0 0 0 0 0 0 0 0 0 0 0 127 0" result="hardAlpha"/>
<feOffset/>
<feGaussianBlur stdDeviation="2"/>
<feComposite in2="hardAlpha" operator="arithmetic" k2="-1" k3="1"/>
<feColorMatrix type="matrix" values="0 0 0 0 0 0 0 0 0 0 0 0 0 0 0 0 0 0 0.16 0"/>
<feBlend mode="normal" in2="shape" result="effect1_innerShadow_3985_5361"/>
</filter>
<filter id="filter1_d_3985_5361" x="0.8" y="0.8" width="22.4" height="22.4" filterUnits="userSpaceOnUse" color-interpolation-filters="sRGB">
<feFlood flood-opacity="0" result="BackgroundImageFix"/>
<feColorMatrix in="SourceAlpha" type="matrix" values="0 0 0 0 0 0 0 0 0 0 0 0 0 0 0 0 0 0 127 0" result="hardAlpha"/>
<feOffset/>
<feGaussianBlur stdDeviation="1.1"/>
<feComposite in2="hardAlpha" operator="out"/>
<feColorMatrix type="matrix" values="0 0 0 0 0 0 0 0 0 0 0 0 0 0 0 0 0 0 0.16 0"/>
<feBlend mode="normal" in2="BackgroundImageFix" result="effect1_dropShadow_3985_5361"/>
<feBlend mode="normal" in="SourceGraphic" in2="effect1_dropShadow_3985_5361" result="shape"/>
</filter>
<linearGradient id="paint0_linear_3985_5361" x1="6.75" y1="12" x2="17.25" y2="12" gradientUnits="userSpaceOnUse">
<stop stop-color="#001C54"/>
<stop offset="1" stop-color="#001C54"/>
</linearGradient>
</defs>
</svg>
