<svg width="24" height="24" viewBox="0 0 24 24" fill="none" xmlns="http://www.w3.org/2000/svg">
<g filter="url(#filter0_i_3985_5353)">
<rect width="24" height="24" rx="5" fill="white" fill-opacity="0.65"/>
</g>
<g filter="url(#filter1_d_3985_5353)">
<rect x="3" y="3" width="18" height="18" rx="4" fill="white" fill-opacity="0.65" shape-rendering="crispEdges"/>
</g>
<path d="M12.0007 5.58301L17.5423 8.79134V15.208L12.0007 18.4163L6.45898 15.208V8.79134L12.0007 5.58301ZM12.0007 6.93109L7.62565 9.46392V14.5354L12.0007 17.0683L16.3757 14.5354V9.46392L12.0007 6.93109ZM12.0007 14.333C11.3818 14.333 10.7883 14.0872 10.3507 13.6496C9.91315 13.212 9.66732 12.6185 9.66732 11.9997C9.66732 11.3808 9.91315 10.7873 10.3507 10.3498C10.7883 9.91217 11.3818 9.66634 12.0007 9.66634C12.6195 9.66634 13.213 9.91217 13.6506 10.3498C14.0882 10.7873 14.334 11.3808 14.334 11.9997C14.334 12.6185 14.0882 13.212 13.6506 13.6496C13.213 14.0872 12.6195 14.333 12.0007 14.333ZM12.0007 13.1663C12.3101 13.1663 12.6068 13.0434 12.8256 12.8246C13.0444 12.6058 13.1673 12.3091 13.1673 11.9997C13.1673 11.6903 13.0444 11.3935 12.8256 11.1747C12.6068 10.9559 12.3101 10.833 12.0007 10.833C11.6912 10.833 11.3945 10.9559 11.1757 11.1747C10.9569 11.3935 10.834 11.6903 10.834 11.9997C10.834 12.3091 10.9569 12.6058 11.1757 12.8246C11.3945 13.0434 11.6912 13.1663 12.0007 13.1663Z" fill="url(#paint0_linear_3985_5353)"/>
<defs>
<filter id="filter0_i_3985_5353" x="0" y="0" width="24" height="24" filterUnits="userSpaceOnUse" color-interpolation-filters="sRGB">
<feFlood flood-opacity="0" result="BackgroundImageFix"/>
<feBlend mode="normal" in="SourceGraphic" in2="BackgroundImageFix" result="shape"/>
<feColorMatrix in="SourceAlpha" type="matrix" values="0 0 0 0 0 0 0 0 0 0 0 0 0 0 0 0 0 0 127 0" result="hardAlpha"/>
<feOffset/>
<feGaussianBlur stdDeviation="2"/>
<feComposite in2="hardAlpha" operator="arithmetic" k2="-1" k3="1"/>
<feColorMatrix type="matrix" values="0 0 0 0 0 0 0 0 0 0 0 0 0 0 0 0 0 0 0.16 0"/>
<feBlend mode="normal" in2="shape" result="effect1_innerShadow_3985_5353"/>
</filter>
<filter id="filter1_d_3985_5353" x="0.8" y="0.8" width="22.4" height="22.4" filterUnits="userSpaceOnUse" color-interpolation-filters="sRGB">
<feFlood flood-opacity="0" result="BackgroundImageFix"/>
<feColorMatrix in="SourceAlpha" type="matrix" values="0 0 0 0 0 0 0 0 0 0 0 0 0 0 0 0 0 0 127 0" result="hardAlpha"/>
<feOffset/>
<feGaussianBlur stdDeviation="1.1"/>
<feComposite in2="hardAlpha" operator="out"/>
<feColorMatrix type="matrix" values="0 0 0 0 0 0 0 0 0 0 0 0 0 0 0 0 0 0 0.16 0"/>
<feBlend mode="normal" in2="BackgroundImageFix" result="effect1_dropShadow_3985_5353"/>
<feBlend mode="normal" in="SourceGraphic" in2="effect1_dropShadow_3985_5353" result="shape"/>
</filter>
<linearGradient id="paint0_linear_3985_5353" x1="17.5423" y1="11.9997" x2="6.45898" y2="11.9997" gradientUnits="userSpaceOnUse">
<stop stop-color="#001C54"/>
<stop offset="1" stop-color="#001C54"/>
</linearGradient>
</defs>
</svg>
