<svg width="22" height="23" viewBox="0 0 22 23" fill="none" xmlns="http://www.w3.org/2000/svg">
<path fill-rule="evenodd" clip-rule="evenodd" d="M8.03241 0.864256C7.08785 1.0927 6.32479 1.87753 6.12684 2.82406C6.09308 2.98549 6.10055 4.01668 6.10055 4.80618V6.16502L3.1788 6.17986C1.20577 6.19423 1.12685 6.19863 0.986945 6.30286C0.907132 6.36232 0.793038 6.47609 0.733415 6.55573C0.625578 6.69976 0.625 6.47933 0.625 11.7553V18.685L0.746717 19.1044C1.16555 20.5481 2.2822 21.6587 3.73765 22.0794L4.14771 22.1978H10.9893H17.8308L18.2478 22.0774C19.6945 21.6597 20.7824 20.5824 21.2327 19.1217L21.3512 18.7374L21.3672 11.8586C21.3849 6.03419 21.4047 6.62741 21.0346 6.34585L20.836 6.19475L18.7945 6.17986L15.878 6.16502V4.80618C15.878 4.01668 15.8218 2.98549 15.788 2.82406C15.5845 1.85079 14.7822 1.0507 13.8062 0.84774C13.3907 0.761335 8.39646 0.776172 8.03241 0.864256ZM13.6925 2.58555C13.8639 2.67175 13.9589 2.76654 14.0454 2.93746C14.1587 3.16166 14.1955 3.57197 14.1955 4.84267V6.16853H10.9893H7.78304V4.84267C7.78304 3.57197 7.75617 3.16166 7.86953 2.93746C7.95596 2.76654 8.05102 2.67175 8.22243 2.58555L8.45703 2.46758H10.9574H13.4579L13.6925 2.58555ZM6.11049 8.83363L6.12684 9.82095L6.27837 10.0189C6.6381 10.4888 7.27892 10.4687 7.64833 9.97593C7.74734 9.84391 7.75817 9.74514 7.7731 8.83882L7.7894 7.84631H10.9893H14.1891L14.2054 8.83363L14.2218 9.82095L14.3733 10.0189C14.733 10.4888 15.3738 10.4687 15.7432 9.97593C15.8423 9.84391 15.8531 9.74514 15.868 8.83882L15.8843 7.84631H18.2283H19.6973V12.1028C19.6973 15.1902 19.679 18.3217 19.6392 18.512C19.4357 19.4853 18.6333 20.2854 17.6573 20.4883C17.2654 20.5698 4.71313 20.5698 4.32116 20.4883C3.34516 20.2854 2.54282 19.4853 2.3393 18.512C2.29949 18.3217 2.2812 15.1902 2.2812 12.1028V7.84631H3.75017H6.09419L6.11049 8.83363Z" fill="url(#paint0_linear_3985_5552)"/>
<defs>
<linearGradient id="paint0_linear_3985_5552" x1="21.375" y1="11.4939" x2="0.625" y2="11.4939" gradientUnits="userSpaceOnUse">
<stop stop-color="#001C54"/>
<stop offset="1" stop-color="#001C54"/>
</linearGradient>
</defs>
</svg>
