<svg width="144" height="37" viewBox="0 0 144 37" fill="none" xmlns="http://www.w3.org/2000/svg">
<g clip-path="url(#clip0_3985_5569)">
<path d="M67.7931 6.25101L68.8433 6.25952L68.6911 34.3547L67.6409 34.3462L67.7931 6.25101Z" fill="url(#paint0_linear_3985_5569)"/>
<path d="M57.4002 6.18738L57.4184 18.8426C57.4212 21.7527 57.2394 23.1003 57.0858 23.716C56.8809 24.5291 56.5129 25.2894 55.9814 25.9734C55.4652 26.6415 54.8232 27.1697 54.0631 27.5424C53.3106 27.9149 52.4009 28.101 51.3495 28.1081C50.3056 28.1072 49.3281 27.8774 48.4247 27.4183C47.5524 26.9746 46.879 26.3864 46.4124 25.6537C45.9299 24.8976 45.6404 24.1152 45.5594 23.3141C45.4604 22.3324 45.408 20.8308 45.4028 18.8409L45.3847 6.18574L39.2224 6.19498L39.2268 8.12981C41.7181 11.4921 43.2004 15.6711 43.2109 20.2015C43.2174 23.3711 42.4947 26.3703 41.2106 29.0393C41.5109 29.4912 41.8341 29.927 42.2034 30.3386C43.3034 31.5657 44.6934 32.529 46.3345 33.2056C47.9445 33.8669 49.7663 34.2028 51.7457 34.206C54.2895 34.2012 56.5528 33.5082 58.4586 32.1439C60.3567 30.7797 61.7084 29.0536 62.4678 27.0056C63.1976 25.0446 63.5461 22.3733 63.542 18.8339L63.5238 6.17869L57.4002 6.18738Z" fill="url(#paint1_linear_3985_5569)"/>
<path d="M0.636621 6.22199L0.669922 34.2432L6.80071 34.2387L6.76741 6.21749L0.636621 6.22199Z" fill="url(#paint2_linear_3985_5569)"/>
<path d="M22.4522 28.365C20.4729 28.3696 18.8314 27.6694 17.4424 26.2341C16.3359 25.0937 15.6585 23.6797 15.3709 21.9456L35.961 21.9271L35.924 20.4175C35.8242 16.1323 34.4836 12.6749 31.9501 10.1469C29.4089 7.61904 26.2437 6.33493 22.5247 6.34079C18.7902 6.34687 15.6089 7.72937 13.0731 10.4634C10.5602 13.1735 9.28497 16.4637 9.28481 20.2469C9.29238 24.0301 10.5608 27.3076 13.0734 30.001C15.6019 32.7179 18.8458 34.0952 22.7039 34.0874C28.1085 34.0811 32.2385 31.4502 34.9711 26.2515L35.6703 24.8572L29.1361 24.8088C27.5232 27.1993 25.3208 28.3634 22.4522 28.365ZM22.562 12.2079C24.3557 12.2059 25.8941 12.7266 27.2624 13.7925C28.1538 14.4877 28.8076 15.3357 29.2478 16.3834L16.1499 16.3893C17.4243 13.5789 19.531 12.2039 22.562 12.2079Z" fill="#D00000"/>
<path d="M36.8067 32.6274L36.3694 34.4898L35.1808 33.0045L33.3042 33.1572L34.3251 31.5539L33.604 29.7867L35.4201 30.272L36.8482 29.0326L36.9528 30.9423L38.5597 31.9418L36.8067 32.6274Z" fill="#D00000"/>
<path d="M40.4538 24.1037L40.9825 25.9365L39.2255 25.2538L37.6792 26.3376L37.7756 24.425L36.2823 23.2588L38.0998 22.7609L38.7313 20.9587L39.7515 22.5643L41.631 22.6162L40.4538 24.1037Z" fill="#D00000"/>
<path d="M39.8257 14.2897L41.2049 15.5913L39.3541 15.9166L38.5671 17.6581L37.6847 15.964L35.8183 15.7389L37.1285 14.3675L36.7615 12.4852L38.4513 13.3341L40.0925 12.3983L39.8257 14.2897Z" fill="#D00000"/>
<path d="M34.5247 6.33601L36.3553 6.7582L34.9116 7.98211L35.0857 9.89078L33.4939 8.86746L31.7652 9.63141L32.2257 7.76875L30.9837 6.33147L32.8605 6.20246L33.819 4.56077L34.5247 6.33601Z" fill="#D00000"/>
<path d="M26.0897 2.16879L27.8907 1.60042L27.236 3.39508L28.3175 4.96048L26.4377 4.88505L25.3153 6.41898L24.8019 4.5702L23.0225 3.95067L24.5846 2.89023L24.6115 0.978688L26.0897 2.16879Z" fill="#D00000"/>
<path d="M16.6601 2.83793L17.9389 1.43548L18.2596 3.31847L19.9719 4.11985L18.307 5.01659L18.0867 6.91516L16.7379 5.58165L14.8876 5.95409L15.7213 4.23553L14.8006 2.56559L16.6601 2.83793Z" fill="#D00000"/>
<path d="M8.85146 8.21155L9.26559 6.34955L10.4695 7.81882L12.3457 7.64263L11.3405 9.26139L12.0846 11.0204L10.261 10.5509L8.84872 11.8137L8.72098 9.90435L7.10654 8.92068L8.85146 8.21155Z" fill="#D00000"/>
<path d="M74.5216 5.95046L74.5216 12.4971L73.0603 12.4971L73.0603 5.95046L74.5216 5.95046ZM81.1042 5.95046L81.1042 12.4971L79.6429 12.4971L77.17 8.26605L77.17 12.4971L75.7042 12.4971L75.7042 5.95046L77.17 5.95046L79.6474 10.1815L79.6474 5.95046L81.1042 5.95046ZM85.1014 5.95046L85.1014 12.4971L83.6401 12.4971L83.6401 5.95046L85.1014 5.95046ZM87.0933 5.95046L87.0933 7.08802L81.6887 7.08802L81.6887 5.95046L87.0933 5.95046ZM92.2685 11.364L92.2685 12.4971L88.7839 12.4971L88.7839 11.364L92.2685 11.364ZM89.283 5.95046L89.283 12.4971L87.8172 12.4971L87.8172 5.95046L89.283 5.95046ZM91.8189 8.58529L91.8189 9.68239L88.7839 9.68239L88.7839 8.58529L91.8189 8.58529ZM92.273 5.95046L92.273 7.08802L88.7839 7.08802L88.7839 5.95046L92.273 5.95046ZM92.9879 5.95046L95.5014 5.95046C96.002 5.95046 96.4351 6.0254 96.8008 6.17527C97.1695 6.32515 97.4528 6.54697 97.6506 6.84073C97.8484 7.13448 97.9474 7.49719 97.9474 7.92883C97.9474 8.28853 97.8889 8.59428 97.772 8.84608C97.6551 9.09787 97.4902 9.3062 97.2774 9.47106C97.0676 9.63593 96.8218 9.76932 96.54 9.87123L96.0634 10.132L93.9232 10.132L93.9142 8.99445L95.5059 8.99445C95.7247 8.99445 95.906 8.95549 96.0499 8.87755C96.1938 8.79961 96.3017 8.6902 96.3737 8.54932C96.4486 8.40544 96.4861 8.23758 96.4861 8.04573C96.4861 7.8479 96.4486 7.67704 96.3737 7.53316C96.2987 7.38927 96.1878 7.27987 96.0409 7.20493C95.8971 7.12699 95.7172 7.08802 95.5014 7.08802L94.4537 7.08802L94.4537 12.4971L92.9879 12.4971L92.9879 5.95046ZM96.612 12.4971L95.1417 9.58797L96.6884 9.58347L98.1812 12.4296L98.1812 12.4971L96.612 12.4971ZM104.341 5.95046L104.341 12.4971L102.88 12.4971L100.407 8.26605L100.407 12.4971L98.941 12.4971L98.941 5.95046L100.407 5.95046L102.884 10.1815L102.884 5.95046L104.341 5.95046ZM108.226 7.19593L106.535 12.4971L104.971 12.4971L107.394 5.95046L108.383 5.95046L108.226 7.19593ZM109.629 12.4971L107.934 7.19593L107.758 5.95046L108.761 5.95046L111.193 12.4971L109.629 12.4971ZM109.557 10.0601L109.557 11.1931L106.144 11.1931L106.144 10.0601L109.557 10.0601ZM114.237 5.95046L114.237 12.4971L112.776 12.4971L112.776 5.95046L114.237 5.95046ZM116.229 5.95046L116.229 7.08802L110.825 7.08802L110.825 5.95046L116.229 5.95046ZM118.513 5.95046L118.513 12.4971L117.052 12.4971L117.052 5.95046L118.513 5.95046ZM125.154 9.07988L125.154 9.37214C125.154 9.86973 125.086 10.3164 124.948 10.712C124.813 11.1077 124.619 11.4449 124.368 11.7237C124.119 12.0025 123.822 12.2168 123.477 12.3667C123.136 12.5136 122.756 12.587 122.34 12.587C121.923 12.587 121.542 12.5136 121.198 12.3667C120.853 12.2168 120.553 12.0025 120.298 11.7237C120.047 11.4449 119.852 11.1077 119.714 10.712C119.576 10.3164 119.507 9.86973 119.507 9.37214L119.507 9.07988C119.507 8.58229 119.576 8.13566 119.714 7.73999C119.852 7.34131 120.045 7.00259 120.294 6.72382C120.546 6.44505 120.844 6.23223 121.189 6.08535C121.533 5.93547 121.914 5.86053 122.331 5.86053C122.747 5.86053 123.128 5.93547 123.473 6.08535C123.818 6.23223 124.114 6.44505 124.363 6.72382C124.615 7.00259 124.81 7.34131 124.948 7.73999C125.086 8.13566 125.154 8.58229 125.154 9.07988ZM123.675 9.37214L123.675 9.07089C123.675 8.73816 123.645 8.44441 123.585 8.18962C123.525 7.93183 123.438 7.71601 123.324 7.54215C123.211 7.36829 123.07 7.2379 122.902 7.15097C122.734 7.06105 122.544 7.01608 122.331 7.01608C122.109 7.01608 121.916 7.06105 121.751 7.15097C121.586 7.2379 121.447 7.36829 121.333 7.54215C121.222 7.71601 121.136 7.93183 121.076 8.18962C121.019 8.44441 120.991 8.73816 120.991 9.07089L120.991 9.37214C120.991 9.70187 121.019 9.99563 121.076 10.2534C121.136 10.5082 121.223 10.724 121.337 10.9009C121.451 11.0777 121.59 11.2111 121.755 11.3011C121.923 11.391 122.118 11.4359 122.34 11.4359C122.553 11.4359 122.741 11.391 122.906 11.3011C123.074 11.2111 123.215 11.0777 123.329 10.9009C123.443 10.724 123.528 10.5082 123.585 10.2534C123.645 9.99563 123.675 9.70187 123.675 9.37214ZM131.454 5.95046L131.454 12.4971L129.992 12.4971L127.52 8.26605L127.52 12.4971L126.054 12.4971L126.054 5.95046L127.52 5.95046L129.997 10.1815L129.997 5.95046L131.454 5.95046ZM135.339 7.19593L133.648 12.4971L132.083 12.4971L134.507 5.95046L135.496 5.95046L135.339 7.19593ZM136.741 12.4971L135.046 7.19593L134.871 5.95046L135.874 5.95046L138.306 12.4971L136.741 12.4971ZM136.669 10.0601L136.669 11.1931L133.257 11.1931L133.257 10.0601L136.669 10.0601ZM143.122 11.364L143.122 12.4971L139.817 12.4971L139.817 11.364L143.122 11.364ZM140.316 5.95046L140.316 12.4971L138.85 12.4971L138.85 5.95046L140.316 5.95046ZM77.4128 22.364L77.4128 23.4971L73.9281 23.4971L73.9281 22.364L77.4128 22.364ZM74.4272 16.9505L74.4272 23.4971L72.9614 23.4971L72.9614 16.9505L74.4272 16.9505ZM76.9631 19.5853L76.9631 20.6824L73.9281 20.6824L73.9281 19.5853L76.9631 19.5853ZM77.4173 16.9505L77.4173 18.088L73.9281 18.088L73.9281 16.9505L77.4173 16.9505ZM81.7157 16.9505L83.1815 16.9505L83.1815 21.2489C83.1815 21.7585 83.0736 22.1871 82.8578 22.5349C82.645 22.8826 82.3482 23.1449 81.9675 23.3217C81.5868 23.4986 81.1462 23.587 80.6456 23.587C80.142 23.587 79.6984 23.4986 79.3147 23.3217C78.934 23.1449 78.6343 22.8826 78.4154 22.5349C78.1996 22.1871 78.0917 21.7585 78.0917 21.2489L78.0917 16.9505L79.562 16.9505L79.562 21.2489C79.562 21.5307 79.604 21.7615 79.6879 21.9414C79.7748 22.1182 79.8992 22.2486 80.0611 22.3325C80.223 22.4135 80.4178 22.4539 80.6456 22.4539C80.8734 22.4539 81.0668 22.4135 81.2256 22.3325C81.3875 22.2486 81.5089 22.1182 81.5898 21.9414C81.6738 21.7615 81.7157 21.5307 81.7157 21.2489L81.7157 16.9505ZM84.2292 16.9505L86.7426 16.9505C87.2432 16.9505 87.6763 17.0254 88.042 17.1753C88.4107 17.3252 88.694 17.547 88.8918 17.8407C89.0897 18.1345 89.1886 18.4972 89.1886 18.9288C89.1886 19.2885 89.1301 19.5943 89.0132 19.8461C88.8963 20.0979 88.7314 20.3062 88.5186 20.4711C88.3088 20.6359 88.063 20.7693 87.7812 20.8712L87.3046 21.132L85.1644 21.132L85.1554 19.9945L86.7471 19.9945C86.9659 19.9945 87.1473 19.9555 87.2911 19.8775C87.435 19.7996 87.5429 19.6902 87.6149 19.5493C87.6898 19.4054 87.7273 19.2376 87.7273 19.0457C87.7273 18.8479 87.6898 18.677 87.6149 18.5332C87.5399 18.3893 87.429 18.2799 87.2821 18.2049C87.1383 18.127 86.9584 18.088 86.7426 18.088L85.6949 18.088L85.6949 23.4971L84.2292 23.4971L84.2292 16.9505ZM87.8532 23.4971L86.3829 20.588L87.9296 20.5835L89.4224 23.4296L89.4224 23.4971L87.8532 23.4971ZM95.6408 20.0799L95.6408 20.3721C95.6408 20.8697 95.5718 21.3164 95.4339 21.712C95.299 22.1077 95.1057 22.4449 94.8539 22.7237C94.6051 23.0025 94.3084 23.2168 93.9636 23.3667C93.6219 23.5136 93.2427 23.587 92.8261 23.587C92.4094 23.587 92.0287 23.5136 91.684 23.3667C91.3393 23.2168 91.0396 23.0025 90.7848 22.7237C90.533 22.4449 90.3381 22.1077 90.2002 21.712C90.0624 21.3164 89.9934 20.8697 89.9934 20.3721L89.9934 20.0799C89.9934 19.5823 90.0624 19.1357 90.2002 18.74C90.3381 18.3413 90.5315 18.0026 90.7803 17.7238C91.0321 17.4451 91.3303 17.2322 91.675 17.0853C92.0197 16.9355 92.4004 16.8605 92.8171 16.8605C93.2337 16.8605 93.6144 16.9355 93.9591 17.0853C94.3039 17.2322 94.6006 17.4451 94.8494 17.7238C95.1012 18.0026 95.296 18.3413 95.4339 18.74C95.5718 19.1357 95.6408 19.5823 95.6408 20.0799ZM94.1615 20.3721L94.1615 20.0709C94.1615 19.7382 94.1315 19.4444 94.0716 19.1896C94.0116 18.9318 93.9247 18.716 93.8108 18.5421C93.6969 18.3683 93.556 18.2379 93.3881 18.151C93.2203 18.061 93.0299 18.0161 92.8171 18.0161C92.5953 18.0161 92.4019 18.061 92.2371 18.151C92.0722 18.2379 91.9328 18.3683 91.8189 18.5421C91.708 18.716 91.6226 18.9318 91.5626 19.1896C91.5057 19.4444 91.4772 19.7382 91.4772 20.0709L91.4772 20.3721C91.4772 20.7019 91.5057 20.9956 91.5626 21.2534C91.6226 21.5082 91.7095 21.724 91.8234 21.9009C91.9373 22.0777 92.0767 22.2111 92.2416 22.3011C92.4094 22.391 92.6043 22.4359 92.8261 22.4359C93.0389 22.4359 93.2277 22.391 93.3926 22.3011C93.5605 22.2111 93.7014 22.0777 93.8153 21.9009C93.9292 21.724 94.0146 21.5082 94.0716 21.2534C94.1315 20.9956 94.1615 20.7019 94.1615 20.3721ZM99.1209 21.2219L97.4753 21.2219L97.4753 20.0844L99.1209 20.0844C99.3637 20.0844 99.5585 20.0439 99.7054 19.963C99.8553 19.882 99.9647 19.7711 100.034 19.6303C100.106 19.4864 100.142 19.3245 100.142 19.1447C100.142 18.9588 100.106 18.7864 100.034 18.6276C99.9647 18.4657 99.8553 18.3353 99.7054 18.2364C99.5585 18.1375 99.3637 18.088 99.1209 18.088L98.0058 18.088L98.0058 23.4971L96.54 23.4971L96.54 16.9505L99.1209 16.9505C99.6425 16.9505 100.089 17.0449 100.461 17.2337C100.835 17.4226 101.122 17.6819 101.32 18.0116C101.52 18.3383 101.621 18.713 101.621 19.1357C101.621 19.5583 101.52 19.9255 101.32 20.2373C101.122 20.549 100.835 20.7918 100.461 20.9657C100.089 21.1365 99.6425 21.2219 99.1209 21.2219ZM106.962 22.364L106.962 23.4971L103.478 23.4971L103.478 22.364L106.962 22.364ZM103.977 16.9505L103.977 23.4971L102.511 23.4971L102.511 16.9505L103.977 16.9505ZM106.513 19.5853L106.513 20.6824L103.478 20.6824L103.478 19.5853L106.513 19.5853ZM106.967 16.9505L106.967 18.088L103.478 18.088L103.478 16.9505L106.967 16.9505ZM110.402 18.1959L108.712 23.4971L107.147 23.4971L109.57 16.9505L110.559 16.9505L110.402 18.1959ZM111.805 23.4971L110.11 18.1959L109.934 16.9505L110.937 16.9505L113.37 23.4971L111.805 23.4971ZM111.733 21.0601L111.733 22.1931L108.32 22.1931L108.32 21.0601L111.733 21.0601ZM119.314 16.9505L119.314 23.4971L117.852 23.4971L115.38 19.2661L115.38 23.4971L113.914 23.4971L113.914 16.9505L115.38 16.9505L117.857 21.1815L117.857 16.9505L119.314 16.9505ZM76.545 27.9505L78.0108 27.9505L78.0108 32.2489C78.0108 32.7585 77.9029 33.1871 77.687 33.5349C77.4742 33.8826 77.1775 34.1449 76.7968 34.3217C76.4161 34.4986 75.9754 34.587 75.4749 34.587C74.9713 34.587 74.5276 34.4986 74.144 34.3217C73.7633 34.1449 73.4635 33.8826 73.2447 33.5349C73.0289 33.1871 72.921 32.7585 72.921 32.2489L72.921 27.9505L74.3913 27.9505L74.3913 32.2489C74.3913 32.5307 74.4332 32.7615 74.5172 32.9414C74.6041 33.1182 74.7285 33.2486 74.8903 33.3325C75.0522 33.4135 75.247 33.4539 75.4749 33.4539C75.7027 33.4539 75.896 33.4135 76.0549 33.3325C76.2168 33.2486 76.3382 33.1182 76.4191 32.9414C76.503 32.7615 76.545 32.5307 76.545 32.2489L76.545 27.9505ZM84.4585 27.9505L84.4585 34.4971L82.9972 34.4971L80.5242 30.2661L80.5242 34.4971L79.0584 34.4971L79.0584 27.9505L80.5242 27.9505L83.0017 32.1815L83.0017 27.9505L84.4585 27.9505ZM87.1023 27.9505L87.1023 34.4971L85.641 34.4971L85.641 27.9505L87.1023 27.9505ZM90.7038 33.0448L92.1606 27.9505L93.7928 27.9505L91.5491 34.4971L90.4835 34.4971L90.7038 33.0448ZM89.3774 27.9505L90.8297 33.0448L91.059 34.4971L89.9799 34.4971L87.7498 27.9505L89.3774 27.9505ZM98.7882 33.364L98.7882 34.4971L95.3035 34.4971L95.3035 33.364L98.7882 33.364ZM95.8026 27.9505L95.8026 34.4971L94.3368 34.4971L94.3368 27.9505L95.8026 27.9505ZM98.3385 30.5853L98.3385 31.6824L95.3035 31.6824L95.3035 30.5853L98.3385 30.5853ZM98.7927 27.9505L98.7927 29.088L95.3035 29.088L95.3035 27.9505L98.7927 27.9505ZM99.5076 27.9505L102.021 27.9505C102.522 27.9505 102.955 28.0254 103.32 28.1753C103.689 28.3252 103.972 28.547 104.17 28.8407C104.368 29.1345 104.467 29.4972 104.467 29.9288C104.467 30.2885 104.409 30.5943 104.292 30.8461C104.175 31.0979 104.01 31.3062 103.797 31.4711C103.587 31.6359 103.341 31.7693 103.06 31.8712L102.583 32.132L100.443 32.132L100.434 30.9945L102.026 30.9945C102.244 30.9945 102.426 30.9555 102.57 30.8775C102.713 30.7996 102.821 30.6902 102.893 30.5493C102.968 30.4054 103.006 30.2376 103.006 30.0457C103.006 29.8479 102.968 29.677 102.893 29.5332C102.818 29.3893 102.707 29.2799 102.561 29.2049C102.417 29.127 102.237 29.088 102.021 29.088L100.973 29.088L100.973 34.4971L99.5076 34.4971L99.5076 27.9505ZM103.132 34.4971L101.661 31.588L103.208 31.5835L104.701 34.4296L104.701 34.4971L103.132 34.4971ZM108.855 32.7705C108.855 32.6596 108.839 32.5607 108.806 32.4737C108.773 32.3838 108.713 32.3014 108.626 32.2264C108.539 32.1515 108.416 32.0766 108.257 32.0016C108.099 31.9237 107.89 31.8443 107.632 31.7633C107.339 31.6674 107.058 31.5595 106.792 31.4396C106.528 31.3167 106.292 31.1743 106.086 31.0124C105.879 30.8506 105.715 30.6617 105.596 30.4459C105.479 30.2301 105.42 29.9783 105.42 29.6905C105.42 29.4118 105.482 29.16 105.605 28.9351C105.727 28.7103 105.9 28.5185 106.122 28.3596C106.343 28.1978 106.604 28.0749 106.904 27.9909C107.204 27.904 107.533 27.8605 107.893 27.8605C108.373 27.8605 108.794 27.946 109.157 28.1168C109.522 28.2847 109.807 28.5215 110.011 28.8272C110.215 29.13 110.317 29.4822 110.317 29.8839L108.86 29.8839C108.86 29.707 108.822 29.5511 108.747 29.4163C108.676 29.2784 108.565 29.1705 108.415 29.0925C108.268 29.0146 108.084 28.9756 107.862 28.9756C107.646 28.9756 107.465 29.0086 107.318 29.0745C107.174 29.1375 107.064 29.2244 106.989 29.3353C106.917 29.4462 106.882 29.5676 106.882 29.6995C106.882 29.8044 106.908 29.9004 106.962 29.9873C107.019 30.0712 107.1 30.1506 107.205 30.2256C107.313 30.2975 107.445 30.3665 107.601 30.4324C107.757 30.4984 107.935 30.5613 108.136 30.6213C108.487 30.7322 108.797 30.8551 109.067 30.99C109.339 31.1248 109.569 31.2777 109.755 31.4486C109.94 31.6194 110.08 31.8128 110.173 32.0286C110.269 32.2444 110.317 32.4887 110.317 32.7615C110.317 33.0523 110.26 33.31 110.146 33.5349C110.035 33.7597 109.873 33.9515 109.66 34.1104C109.45 34.2663 109.199 34.3847 108.905 34.4656C108.611 34.5465 108.283 34.587 107.92 34.587C107.59 34.587 107.265 34.545 106.944 34.4611C106.624 34.3742 106.333 34.2423 106.072 34.0654C105.814 33.8886 105.608 33.6638 105.452 33.391C105.299 33.1152 105.222 32.7885 105.222 32.4108L106.688 32.4108C106.688 32.6086 106.717 32.7765 106.774 32.9144C106.831 33.0493 106.911 33.1587 107.016 33.2426C107.124 33.3265 107.255 33.3865 107.408 33.4225C107.56 33.4584 107.731 33.4764 107.92 33.4764C108.139 33.4764 108.316 33.4464 108.451 33.3865C108.589 33.3235 108.691 33.2381 108.756 33.1302C108.822 33.0223 108.855 32.9024 108.855 32.7705ZM112.74 27.9505L112.74 34.4971L111.279 34.4971L111.279 27.9505L112.74 27.9505ZM116.836 27.9505L116.836 34.4971L115.375 34.4971L115.375 27.9505L116.836 27.9505ZM118.828 27.9505L118.828 29.088L113.424 29.088L113.424 27.9505L118.828 27.9505ZM120.672 27.9505L121.953 30.8641L123.244 27.9505L124.826 27.9505L122.699 32.132L122.699 34.4971L121.211 34.4971L121.211 32.132L119.08 27.9505L120.672 27.9505Z" fill="url(#paint3_linear_3985_5569)"/>
</g>
<defs>
<linearGradient id="paint0_linear_3985_5569" x1="68.8049" y1="20.3074" x2="67.6791" y2="20.2983" gradientUnits="userSpaceOnUse">
<stop stop-color="#001C54"/>
<stop offset="1" stop-color="#001C54"/>
</linearGradient>
<linearGradient id="paint1_linear_3985_5569" x1="63.7201" y1="19.9409" x2="39.4002" y2="20.2878" gradientUnits="userSpaceOnUse">
<stop stop-color="#001C54"/>
<stop offset="1" stop-color="#001C54"/>
</linearGradient>
<linearGradient id="paint2_linear_3985_5569" x1="3.70202" y1="6.21974" x2="3.72259" y2="34.2409" gradientUnits="userSpaceOnUse">
<stop stop-color="#001C54"/>
<stop offset="1" stop-color="#001C54"/>
</linearGradient>
<linearGradient id="paint3_linear_3985_5569" x1="154.377" y1="21.0722" x2="72.4219" y2="21.0723" gradientUnits="userSpaceOnUse">
<stop stop-color="#001C54"/>
<stop offset="1" stop-color="#001C54"/>
</linearGradient>
<clipPath id="clip0_3985_5569">
<rect width="143.061" height="35.8343" fill="white" transform="translate(-0.0078125 1.03223) rotate(-0.288471)"/>
</clipPath>
</defs>
</svg>
