<svg width="32" height="32" viewBox="0 0 32 32" fill="none" xmlns="http://www.w3.org/2000/svg">
<path d="M14.6445 32C11.8887 32 9.64453 29.7573 9.64453 27C9.64453 26.448 10.0925 26 10.6445 26C11.1965 26 11.6445 26.448 11.6445 27C11.6445 28.6548 12.9912 30 14.6445 30C16.2979 30 17.6445 28.6548 17.6445 27C17.6445 26.448 18.0925 26 18.6445 26C19.1965 26 19.6445 26.448 19.6445 27C19.6445 29.7573 17.4006 32 14.6445 32Z" fill="url(#paint0_linear_3985_5558)"/>
<path d="M25.6458 28H3.64575C2.35913 28 1.3125 26.9534 1.3125 25.6667C1.3125 24.9839 1.60986 24.3374 2.12842 23.8933C2.16187 23.864 2.19775 23.8374 2.23511 23.8132C4.19238 22.1052 5.3125 19.6479 5.3125 17.0532V13.3333C5.3125 8.18677 9.50049 4 14.6458 4C14.8591 4 15.0898 4.00391 15.3032 4.04004C15.8484 4.13062 16.2166 4.64673 16.1257 5.19067C16.0352 5.73462 15.5098 6.10278 14.9751 6.01196C14.8684 5.99463 14.7512 6 14.6458 6C10.6033 6 7.3125 9.28931 7.3125 13.3333V17.0532C7.3125 20.2747 5.90039 23.3228 3.44189 25.4146C3.42188 25.4307 3.40454 25.4453 3.38306 25.46C3.34717 25.5054 3.3125 25.5747 3.3125 25.6667C3.3125 25.8479 3.4646 26 3.64575 26H25.6458C25.8271 26 25.9792 25.8479 25.9792 25.6667C25.9792 25.5732 25.9446 25.5054 25.9072 25.46C25.8872 25.4453 25.8699 25.4307 25.8499 25.4146C23.3899 23.3213 21.9792 20.2747 21.9792 17.0532V15.6001C21.9792 15.0481 22.4272 14.6001 22.9792 14.6001C23.5312 14.6001 23.9792 15.0481 23.9792 15.6001V17.0532C23.9792 19.6494 25.1006 22.1079 27.0605 23.8174C27.0964 23.8413 27.1311 23.8667 27.1631 23.8948C27.6819 24.3374 27.9792 24.9839 27.9792 25.6667C27.9792 26.9534 26.9326 28 25.6458 28Z" fill="url(#paint1_linear_3985_5558)"/>
<mask id="path-3-inside-1_3985_5558" fill="white">
<path d="M23.9792 13.3333C20.3032 13.3333 17.3125 10.3428 17.3125 6.66675C17.3125 2.99072 20.3032 0 23.9792 0C27.6553 0 30.6458 2.99072 30.6458 6.66675C30.6458 10.3428 27.6553 13.3333 23.9792 13.3333ZM23.9792 2C21.4058 2 19.3125 4.09326 19.3125 6.66675C19.3125 9.23999 21.4058 11.3333 23.9792 11.3333C26.5525 11.3333 28.6458 9.23999 28.6458 6.66675C28.6458 4.09326 26.5525 2 23.9792 2Z"/>
</mask>
<path d="M23.9792 13.3333C20.3032 13.3333 17.3125 10.3428 17.3125 6.66675C17.3125 2.99072 20.3032 0 23.9792 0C27.6553 0 30.6458 2.99072 30.6458 6.66675C30.6458 10.3428 27.6553 13.3333 23.9792 13.3333ZM23.9792 2C21.4058 2 19.3125 4.09326 19.3125 6.66675C19.3125 9.23999 21.4058 11.3333 23.9792 11.3333C26.5525 11.3333 28.6458 9.23999 28.6458 6.66675C28.6458 4.09326 26.5525 2 23.9792 2Z" fill="#C4C4C4"/>
<path d="M23.9792 4.44436C25.212 4.44436 26.2014 5.43315 26.2014 6.66675L8.42361 6.66675C8.42361 15.2524 15.3944 22.2221 23.9792 22.2221V4.44436ZM26.2014 6.66675C26.2014 7.89992 25.2124 8.88889 23.9792 8.88889V-8.88889C15.394 -8.88889 8.42361 -1.91848 8.42361 6.66675L26.2014 6.66675ZM23.9792 8.88889C22.7457 8.88889 21.7569 7.8995 21.7569 6.66675L39.5346 6.66675C39.5346 -1.91805 32.5649 -8.88889 23.9792 -8.88889V8.88889ZM21.7569 6.66675C21.7569 5.43358 22.7461 4.44436 23.9792 4.44436V22.2221C32.5645 22.2221 39.5346 15.252 39.5346 6.66675L21.7569 6.66675ZM23.9792 -6.88889C16.4966 -6.88889 10.4236 -0.815936 10.4236 6.66675L28.2014 6.66675C28.2014 9.00246 26.315 10.8889 23.9792 10.8889V-6.88889ZM10.4236 6.66675C10.4236 14.1495 16.4969 20.2221 23.9792 20.2221V2.44436C26.3147 2.44436 28.2014 4.33049 28.2014 6.66675L10.4236 6.66675ZM23.9792 20.2221C31.4617 20.2221 37.5346 14.1492 37.5346 6.66675L19.7569 6.66675C19.7569 4.33079 21.6433 2.44436 23.9792 2.44436V20.2221ZM37.5346 6.66675C37.5346 -0.815634 31.462 -6.88889 23.9792 -6.88889V10.8889C21.643 10.8889 19.7569 9.00216 19.7569 6.66675L37.5346 6.66675Z" fill="url(#paint2_linear_3985_5558)" mask="url(#path-3-inside-1_3985_5558)"/>
<circle cx="23.9987" cy="6.66667" r="6.66667" fill="#D00000"/>
<path d="M22.3169 9V8.43434L24.0669 6.62121C24.2538 6.42424 24.4078 6.25168 24.529 6.10354C24.6519 5.9537 24.7437 5.81145 24.8043 5.67677C24.8649 5.54209 24.8952 5.39899 24.8952 5.24747C24.8952 5.07576 24.8548 4.92761 24.774 4.80303C24.6932 4.67677 24.5829 4.57997 24.4432 4.51263C24.3035 4.4436 24.146 4.40909 23.971 4.40909C23.7858 4.40909 23.6242 4.44697 23.4861 4.52273C23.3481 4.59848 23.242 4.70539 23.1679 4.84343C23.0939 4.98148 23.0568 5.1431 23.0568 5.32828H22.3119C22.3119 5.01347 22.3843 4.73822 22.529 4.50253C22.6738 4.26683 22.8725 4.08417 23.125 3.95455C23.3775 3.82323 23.6646 3.75758 23.9861 3.75758C24.311 3.75758 24.5972 3.82239 24.8447 3.95202C25.0939 4.07997 25.2883 4.25505 25.428 4.47727C25.5678 4.69781 25.6376 4.94697 25.6376 5.22475C25.6376 5.41667 25.6014 5.60438 25.529 5.78788C25.4583 5.97138 25.3346 6.17593 25.1578 6.40152C24.9811 6.62542 24.7353 6.89731 24.4205 7.21717L23.3927 8.29293V8.33081H25.721V9H22.3169Z" fill="white"/>
<defs>
<linearGradient id="paint0_linear_3985_5558" x1="19.6445" y1="29" x2="9.64453" y2="29" gradientUnits="userSpaceOnUse">
<stop stop-color="#001C54"/>
<stop offset="1" stop-color="#001C54"/>
</linearGradient>
<linearGradient id="paint1_linear_3985_5558" x1="27.9792" y1="16" x2="1.3125" y2="16" gradientUnits="userSpaceOnUse">
<stop stop-color="#001C54"/>
<stop offset="1" stop-color="#001C54"/>
</linearGradient>
<linearGradient id="paint2_linear_3985_5558" x1="30.6458" y1="6.66663" x2="17.3125" y2="6.66663" gradientUnits="userSpaceOnUse">
<stop stop-color="#001C54"/>
<stop offset="1" stop-color="#001C54"/>
</linearGradient>
</defs>
</svg>
