<svg width="10" height="10" viewBox="0 0 10 10" fill="none" xmlns="http://www.w3.org/2000/svg">
<path fill-rule="evenodd" clip-rule="evenodd" d="M5.41118 1.3298C5.63898 1.10199 5.63898 0.732645 5.41118 0.504839C5.18337 0.277033 4.81402 0.277033 4.58622 0.504839L0.502886 4.58817C0.27508 4.81598 0.27508 5.18532 0.502886 5.41313L4.58622 9.49646C4.81402 9.72427 5.18337 9.72427 5.41118 9.49646C5.63898 9.26866 5.63898 8.89931 5.41118 8.67151L2.32309 5.58342H9.08317C9.40534 5.58342 9.6665 5.32225 9.6665 5.00008C9.6665 4.67792 9.40534 4.41675 9.08317 4.41675H2.32423L5.41118 1.3298Z" fill="url(#paint0_linear_5759_2404)"/>
<defs>
<linearGradient id="paint0_linear_5759_2404" x1="9.6665" y1="5.00065" x2="0.332031" y2="5.00065" gradientUnits="userSpaceOnUse">
<stop stop-color="#001C54"/>
<stop offset="1" stop-color="#001C54"/>
</linearGradient>
</defs>
</svg>
